<?xml version="1.0" standalone="no"?>
<svg width="1920" height="200" viewBox="0 0 1920 200" xmlns="http://www.w3.org/2000/svg">
  <defs>
    <!-- Gradient definitions -->
    <linearGradient id="mainGradient" x1="0%" y1="0%" x2="100%" y2="100%">
      <stop offset="0%" style="stop-color:#f8f9fa;stop-opacity:1" />
      <stop offset="30%" style="stop-color:#ffffff;stop-opacity:1" />
      <stop offset="70%" style="stop-color:#f1f8e9;stop-opacity:1" />
      <stop offset="100%" style="stop-color:#e8f5e8;stop-opacity:1" />
    </linearGradient>
    
    <radialGradient id="accentGradient" cx="50%" cy="50%" r="50%">
      <stop offset="0%" style="stop-color:#d4af37;stop-opacity:0.1" />
      <stop offset="100%" style="stop-color:#2e7d32;stop-opacity:0.05" />
    </radialGradient>
    
    <!-- Islamic geometric pattern -->
    <pattern id="islamicPattern" x="0" y="0" width="120" height="120" patternUnits="userSpaceOnUse">
      <!-- 8-pointed star (Khatam) -->
      <!-- <g opacity="0.08" fill="#d4af37">
        <polygon points="60,20 70,40 90,40 76,54 82,74 60,64 38,74 44,54 30,40 50,40" />
        <polygon points="60,46 70,66 90,66 76,80 82,100 60,90 38,100 44,80 30,66 50,66" />
        <circle cx="60" cy="60" r="3" fill="#2e7d32" opacity="0.3"/>
      </g> -->
      
      <!-- Interlacing geometric lines -->
      <g stroke="#d4af37" stroke-width="1" fill="none" opacity="0.06">
        <path d="M0,60 L40,20 L80,60 L120,20 M0,60 L40,100 L80,60 L120,100"/>
        <path d="M20,0 L60,40 L20,80 L60,120 M100,0 L60,40 L100,80 L60,120"/>
      </g>
    </pattern>
    
    <!-- Subtle calligraphy-inspired curves -->
    <pattern id="calligraphyPattern" x="0" y="0" width="200" height="100" patternUnits="userSpaceOnUse">
      <g stroke="#2e7d32" stroke-width="2" fill="none" opacity="0.04">
        <path d="M0,50 Q50,30 100,50 T200,50"/>
        <path d="M0,30 Q50,10 100,30 T200,30"/>
        <path d="M0,70 Q50,90 100,70 T200,70"/>
      </g>
    </pattern>
    
    <!-- Subtle dotted pattern -->
    <pattern id="dotPattern" x="0" y="0" width="40" height="40" patternUnits="userSpaceOnUse">
      <circle cx="20" cy="20" r="1" fill="#d4af37" opacity="0.1"/>
      <circle cx="10" cy="30" r="0.5" fill="#2e7d32" opacity="0.08"/>
      <circle cx="30" cy="10" r="0.5" fill="#2e7d32" opacity="0.08"/>
    </pattern>
    
    <!-- Light overlay for depth -->
    <linearGradient id="lightOverlay" x1="0%" y1="0%" x2="0%" y2="100%">
      <stop offset="0%" style="stop-color:#ffffff;stop-opacity:0.3" />
      <stop offset="50%" style="stop-color:#ffffff;stop-opacity:0.1" />
      <stop offset="100%" style="stop-color:#ffffff;stop-opacity:0.2" />
    </linearGradient>
  </defs>
  
  <!-- Main background -->
  <rect width="1920" height="200" fill="url(#mainGradient)"/>
  
  <!-- Radial accent overlay -->
  <rect width="1920" height="200" fill="url(#accentGradient)"/>
  
  <!-- Islamic geometric pattern overlay -->
  <rect width="1920" height="200" fill="url(#islamicPattern)"/>
  
  <!-- Calligraphy pattern overlay -->
  <rect width="1920" height="200" fill="url(#calligraphyPattern)"/>
  
  <!-- Subtle dot pattern -->
  <rect width="1920" height="200" fill="url(#dotPattern)"/>
  
  <!-- Decorative elements -->
  <!-- Top border with Islamic motifs -->
  <g opacity="0.15">
    <!-- <rect x="0" y="0" width="1920" height="3" fill="#d4af37"/> -->
    <g fill="#2e7d32">
      <circle cx="100" cy="15" r="2"/>
      <circle cx="300" cy="15" r="2"/>
      <circle cx="500" cy="15" r="2"/>
      <circle cx="700" cy="15" r="2"/>
      <circle cx="900" cy="15" r="2"/>
      <circle cx="1100" cy="15" r="2"/>
      <circle cx="1300" cy="15" r="2"/>
      <circle cx="1500" cy="15" r="2"/>
      <circle cx="1700" cy="15" r="2"/>
    </g>
  </g>
  
  <!-- Bottom subtle border -->
  <!-- <g opacity="0.1">
    <rect x="0" y="197" width="1920" height="3" fill="#2e7d32"/>
  </g> -->
  
  <!-- Light overlay for professional finish -->
  <rect width="1920" height="200" fill="url(#lightOverlay)"/>
  
  <!-- Subtle corner ornaments -->
  <g opacity="0.08" fill="#d4af37">
    <!-- Top left ornament -->
    <path d="M0,0 L30,0 Q40,10 30,20 L20,30 Q10,40 0,30 Z"/>
    <!-- Top right ornament -->
    <path d="M1920,0 L1890,0 Q1880,10 1890,20 L1900,30 Q1910,40 1920,30 Z"/>
    <!-- Bottom left ornament -->
    <path d="M0,200 L30,200 Q40,190 30,180 L20,170 Q10,160 0,170 Z"/>
    <!-- Bottom right ornament -->
    <path d="M1920,200 L1890,200 Q1880,190 1890,180 L1900,170 Q1910,160 1920,170 Z"/>
  </g>
</svg>